<?xml version="1.0" encoding="UTF-8" standalone="no"?><!DOCTYPE svg PUBLIC "-//W3C//DTD SVG 1.1//EN" "http://www.w3.org/Graphics/SVG/1.1/DTD/svg11.dtd"><svg width="100%" height="100%" viewBox="0 0 132 40" version="1.1" xmlns="http://www.w3.org/2000/svg" xmlns:xlink="http://www.w3.org/1999/xlink" xml:space="preserve" style="fill-rule:evenodd;clip-rule:evenodd;stroke-linejoin:round;stroke-miterlimit:1.41421;"><g><g><path d="M32.858,34.068l-24.444,0l1.512,-6.096l-4.697,-1.659l4.697,-5.706c0,0 -5.008,-2.115 -4.697,-3.508c0.312,-1.392 3.72,-2.975 6.1,-3.719c0.522,-0.163 2.019,-10.334 4.746,-10.306c2.698,0.027 2.81,0.706 4.561,0.755c1.75,-0.049 1.863,-0.728 4.561,-0.755c2.727,-0.028 4.224,10.143 4.746,10.306c2.38,0.744 5.788,2.327 6.099,3.719c0.312,1.393 -4.696,3.508 -4.696,3.508l4.696,5.706l-4.696,1.659l1.512,6.096Zm-12.165,-12.714c0.099,-0.002 0.237,-0.015 0.432,-0.049c0.62,-0.111 -1.265,3.559 2.743,3.41c2.57,-0.095 2.87,-3.41 2.87,-3.41c0,0 2.584,-0.499 2.629,-0.645c0.045,-0.147 1.321,2.826 -1.5,4.055c-0.434,0.55 -1.649,8.053 -7.293,7.88c-5.644,0.173 -6.86,-7.33 -7.294,-7.88c-2.82,-1.229 -1.545,-4.202 -1.5,-4.055c0.046,0.146 2.629,0.645 2.629,0.645c0,0 0.3,3.315 2.87,3.41c4.009,0.149 2.124,-3.521 2.744,-3.41c0.194,0.034 0.333,0.047 0.431,0.049l0,-0.049c0,0 0.014,0.031 0.12,0.044c0.105,-0.013 0.119,-0.044 0.119,-0.044l0,0.049Z" style="fill:#fff;"/></g><g><path d="M54.765,27.03l2.004,0.506c-0.42,1.646 -1.176,2.901 -2.267,3.766c-1.092,0.864 -2.427,1.296 -4.004,1.296c-1.632,0 -2.96,-0.332 -3.982,-0.997c-1.023,-0.664 -1.801,-1.627 -2.335,-2.887c-0.534,-1.261 -0.801,-2.614 -0.801,-4.06c0,-1.578 0.302,-2.953 0.904,-4.128c0.603,-1.174 1.46,-2.066 2.573,-2.675c1.112,-0.61 2.336,-0.915 3.672,-0.915c1.515,0 2.79,0.386 3.823,1.157c1.033,0.772 1.753,1.857 2.159,3.255l-1.973,0.465c-0.352,-1.102 -0.861,-1.905 -1.529,-2.408c-0.668,-0.502 -1.509,-0.754 -2.521,-0.754c-1.164,0 -2.137,0.279 -2.919,0.837c-0.781,0.558 -1.331,1.307 -1.647,2.247c-0.317,0.94 -0.476,1.91 -0.476,2.908c0,1.288 0.188,2.413 0.563,3.373c0.376,0.961 0.959,1.679 1.752,2.154c0.792,0.476 1.649,0.713 2.572,0.713c1.123,0 2.073,-0.324 2.851,-0.971c0.779,-0.647 1.305,-1.608 1.581,-2.882Z" style="fill:#fff;fill-rule:nonzero;"/><path d="M58.98,32.34l0,-10.972l1.674,0l0,1.664c0.427,-0.779 0.821,-1.292 1.183,-1.54c0.361,-0.248 0.759,-0.372 1.193,-0.372c0.626,0 1.264,0.2 1.911,0.6l-0.641,1.725c-0.454,-0.269 -0.909,-0.403 -1.363,-0.403c-0.407,0 -0.772,0.122 -1.095,0.367c-0.324,0.244 -0.555,0.583 -0.692,1.017c-0.207,0.661 -0.31,1.385 -0.31,2.17l0,5.744l-1.86,0Z" style="fill:#fff;fill-rule:nonzero;"/><path d="M66.057,19.333l0,-2.138l1.859,0l0,2.138l-1.859,0Zm0,13.007l0,-10.972l1.859,0l0,10.972l-1.859,0Z" style="fill:#fff;fill-rule:nonzero;"/><path d="M70.747,32.34l0,-10.972l1.663,0l0,1.54c0.345,-0.538 0.803,-0.97 1.374,-1.297c0.572,-0.327 1.223,-0.491 1.953,-0.491c0.813,0 1.479,0.169 1.999,0.507c0.52,0.337 0.887,0.809 1.1,1.415c0.868,-1.281 1.998,-1.922 3.389,-1.922c1.088,0 1.925,0.302 2.51,0.904c0.586,0.603 0.878,1.531 0.878,2.785l0,7.531l-1.849,0l0,-6.912c0,-0.743 -0.06,-1.279 -0.181,-1.606c-0.12,-0.327 -0.339,-0.591 -0.656,-0.79c-0.317,-0.2 -0.688,-0.3 -1.115,-0.3c-0.772,0 -1.412,0.257 -1.922,0.77c-0.51,0.513 -0.765,1.334 -0.765,2.464l0,6.374l-1.859,0l0,-7.129c0,-0.826 -0.152,-1.446 -0.455,-1.859c-0.303,-0.413 -0.799,-0.62 -1.487,-0.62c-0.524,0 -1.008,0.138 -1.452,0.413c-0.444,0.276 -0.766,0.679 -0.966,1.209c-0.2,0.53 -0.299,1.295 -0.299,2.293l0,5.693l-1.86,0Z" style="fill:#fff;fill-rule:nonzero;"/><path d="M95.882,28.807l1.922,0.237c-0.303,1.123 -0.864,1.994 -1.684,2.614c-0.82,0.62 -1.867,0.93 -3.141,0.93c-1.604,0 -2.877,-0.494 -3.817,-1.483c-0.94,-0.988 -1.41,-2.374 -1.41,-4.158c0,-1.846 0.475,-3.278 1.426,-4.298c0.95,-1.019 2.183,-1.529 3.698,-1.529c1.467,0 2.665,0.5 3.595,1.498c0.93,0.999 1.395,2.404 1.395,4.215c0,0.111 -0.004,0.276 -0.01,0.496l-8.183,0c0.069,1.206 0.41,2.129 1.023,2.769c0.613,0.641 1.378,0.961 2.294,0.961c0.682,0 1.263,-0.179 1.746,-0.537c0.482,-0.359 0.864,-0.93 1.146,-1.715Zm-6.105,-3.007l6.126,0c-0.083,-0.923 -0.317,-1.615 -0.703,-2.076c-0.592,-0.716 -1.36,-1.075 -2.303,-1.075c-0.854,0 -1.572,0.286 -2.154,0.858c-0.582,0.571 -0.904,1.336 -0.966,2.293Z" style="fill:#fff;fill-rule:nonzero;"/><path d="M107.463,26.4l0,-1.777l6.416,-0.011l0,5.62c-0.985,0.785 -2.001,1.376 -3.048,1.772c-1.047,0.396 -2.121,0.594 -3.223,0.594c-1.488,0 -2.839,-0.318 -4.055,-0.955c-1.215,-0.638 -2.133,-1.559 -2.753,-2.764c-0.62,-1.205 -0.93,-2.552 -0.93,-4.039c0,-1.474 0.308,-2.85 0.925,-4.128c0.616,-1.277 1.503,-2.226 2.66,-2.846c1.157,-0.62 2.49,-0.93 3.998,-0.93c1.095,0 2.085,0.178 2.97,0.532c0.885,0.355 1.579,0.849 2.082,1.483c0.503,0.634 0.885,1.46 1.147,2.479l-1.808,0.496c-0.228,-0.771 -0.51,-1.377 -0.847,-1.818c-0.338,-0.441 -0.82,-0.794 -1.447,-1.059c-0.626,-0.265 -1.322,-0.398 -2.087,-0.398c-0.916,0 -1.708,0.14 -2.376,0.419c-0.668,0.279 -1.207,0.645 -1.617,1.1c-0.409,0.454 -0.728,0.954 -0.955,1.498c-0.386,0.937 -0.579,1.952 -0.579,3.048c0,1.349 0.233,2.479 0.698,3.388c0.465,0.909 1.141,1.584 2.03,2.025c0.888,0.441 1.832,0.661 2.83,0.661c0.868,0 1.715,-0.167 2.542,-0.501c0.826,-0.334 1.453,-0.69 1.88,-1.069l0,-2.82l-4.453,0Z" style="fill:#fff;fill-rule:nonzero;"/><path d="M115.904,26.854c0,-2.032 0.565,-3.537 1.694,-4.515c0.944,-0.812 2.094,-1.219 3.451,-1.219c1.508,0 2.741,0.495 3.698,1.483c0.958,0.988 1.436,2.354 1.436,4.096c0,1.412 -0.212,2.523 -0.635,3.332c-0.424,0.809 -1.04,1.438 -1.849,1.885c-0.81,0.448 -1.693,0.672 -2.65,0.672c-1.536,0 -2.778,-0.493 -3.725,-1.478c-0.947,-0.984 -1.42,-2.403 -1.42,-4.256Zm1.911,0c0,1.405 0.307,2.457 0.92,3.156c0.613,0.699 1.384,1.049 2.314,1.049c0.923,0 1.691,-0.351 2.303,-1.054c0.613,-0.702 0.92,-1.773 0.92,-3.213c0,-1.357 -0.308,-2.385 -0.925,-3.084c-0.616,-0.699 -1.382,-1.048 -2.298,-1.048c-0.93,0 -1.701,0.348 -2.314,1.043c-0.613,0.696 -0.92,1.746 -0.92,3.151Z" style="fill:#fff;fill-rule:nonzero;"/></g></g></svg>